# xmcd CD database file
#
# Track frame offsets:
#	150
#	14803
#	25254
#	38480
#	49620
#	59462
#	69937
#	83328
#	94187
#	108160
#	119234
#	128249
#	138588
#	150720
#	161337
#	171049
#	182467
#	192992
#	203068
#	213796
#	221199
#	230680
#
# Disc length: 3254 seconds
#
# Revision: 0
# Processed by: cddbd v1.5PL3 Copyright (c) Steve Scherf et al.
# Submitted via: CDex 1.50Beta7
#
DISCID=300cb416
DTITLE=Various Artist - Pop Goes the Fifties
DYEAR=1900
DGENRE=Salsa
TTITLE0=Al Martino - Here in My Heart
TTITLE1=Dickie Valentine - Mister Sandman
TTITLE2=Crew Cuts - Earth Angel (Will You be Mine)
TTITLE3=Perez Prado and his Orchestra - Cherry Pink and Apple Blossom White
TTITLE4=Bill Haley and his Comets - (We're Gonna) Rock Around the Clock
TTITLE5=Frankie Lymon and the Teenagers - Why Do Fools Fall in Love
TTITLE6=Gogi Grant - Wayward Wind
TTITLE7=Gary Miller - Robin Hood
TTITLE8=Harry Belafonte - Banana Boat Song (Day-O)
TTITLE9=Terry Dean - White Sport Coat
TTITLE10=Lonnie Donegan - Cumberland Gap
TTITLE11=Hughie 'Piano' Smith and the Clowns - Rocking Pneumonia and the Boogie Woogie 'Flu
TTITLE12=Perry Como - Magic Moments
TTITLE13=Everley Brothers - All I Have to Do is Dream
TTITLE14=Ritchie Valens - La Bamba
TTITLE15=Jimmy Clanton and the Rockets - Just A Dream
TTITLE16=Marty Wilde - Endless Sleep
TTITLE17=Billy Fury - Maybe Tomorrow
TTITLE18=Frankie Avalon - Venus
TTITLE19=Adam Faith - What Do You Want
TTITLE20=Emile Ford and the Checkmates - What Do You Want to Make Those Eyes at Me For
TTITLE21=Frankie Ford - Sea Cruise
EXTD=
EXTT0=
EXTT1=
EXTT2=
EXTT3=
EXTT4=
EXTT5=
EXTT6=
EXTT7=
EXTT8=
EXTT9=
EXTT10=
EXTT11=
EXTT12=
EXTT13=
EXTT14=
EXTT15=
EXTT16=
EXTT17=
EXTT18=
EXTT19=
EXTT20=
EXTT21=
PLAYORDER=
